<?xml version="1.0" standalone="no"?>
<!DOCTYPE svg PUBLIC "-//W3C//DTD SVG 20010904//EN"
 "http://www.w3.org/TR/2001/REC-SVG-20010904/DTD/svg10.dtd">
<svg version="1.0" xmlns="http://www.w3.org/2000/svg"
 width="792.000000pt" height="792.000000pt" viewBox="0 0 792.000000 792.000000"
 preserveAspectRatio="xMidYMid meet">
<metadata>
Created by potrace 1.11, written by Peter Selinger 2001-2013
</metadata>
<g transform="translate(0.000000,792.000000) scale(0.100000,-0.100000)"
fill="#000000" stroke="none">
<path d="M3695 7694 c-823 -66 -1521 -343 -2144 -851 -136 -111 -393 -368
-504 -504 -468 -574 -744 -1222 -834 -1959 -24 -202 -24 -648 0 -850 90 -737
366 -1385 834 -1959 111 -136 368 -393 504 -504 574 -468 1222 -744 1959 -834
202 -24 648 -24 850 0 737 90 1385 366 1959 834 136 111 393 368 504 504 468
574 743 1221 834 1959 24 197 24 656 0 850 -20 164 -76 460 -87 460 -4 0 -16
-12 -26 -27 -30 -46 -244 -255 -324 -315 -96 -73 -220 -147 -326 -194 l-84
-37 8 -41 c12 -69 8 -494 -6 -606 -67 -537 -269 -1028 -595 -1449 -105 -136
-362 -393 -498 -498 -648 -502 -1450 -705 -2259 -572 -466 77 -915 275 -1299
572 -136 105 -393 362 -498 498 -326 421 -528 913 -595 1449 -17 136 -17 524
0 660 67 536 269 1028 595 1449 105 136 362 393 498 498 571 442 1291 660
1994 604 132 -11 349 -42 397 -57 12 -3 24 8 44 43 129 226 360 468 578 608
32 20 54 41 50 45 -5 4 -58 24 -119 43 -245 79 -489 132 -735 162 -129 16
-564 28 -675 19z"/>
<path d="M3784 5440 c-187 -20 -333 -64 -519 -156 -288 -142 -514 -367 -658
-654 -158 -314 -202 -644 -132 -982 26 -125 61 -224 130 -363 144 -290 370
-516 660 -660 199 -98 331 -136 551 -156 184 -18 393 6 581 67 117 37 327 146
426 220 111 84 227 199 311 311 74 98 183 308 220 426 55 170 82 373 71 536
-7 105 -29 253 -40 272 -4 5 -39 26 -78 46 -247 124 -499 354 -663 604 -51 78
-144 264 -175 350 l-22 59 -70 21 c-199 59 -400 79 -593 59z"/>
</g>
</svg>
